{"asset":{"version":"2.0","generator":"Unity 2020.3.48f1 glTFast 6.0.0"},"nodes":[{"name":"Main Camera","children":[1],"translation":[0,1,-10]},{"name":"Main Camera_Orientation","rotation":[0,-1,0,-4.371139E-08],"camera":0},{"name":"Directional Light","children":[3],"translation":[0,3,0],"rotation":[0.408217877,0.234569684,-0.109381631,0.8754261]},{"name":"Directional Light_Orientation","rotation":[0,-1,0,-4.371139E-08],"extensions":{"KHR_lights_punctual":{"light":0}}},{"name":"Cube","mesh":0,"translation":[0.678216934,0.298975,-1.08534431]},{"name":"Sphere","mesh":1,"translation":[-0.59,0.298975,-1.08534431]},{"name":"Capsule","mesh":2,"translation":[2.38,0.298975,-1.08534431]}],"extensionsRequired":["KHR_materials_unlit","KHR_lights_punctual"],"extensionsUsed":["KHR_materials_unlit","KHR_lights_punctual"],"buffers":[{"uri":"test1.bin","byteLength":70656}],"bufferViews":[{"buffer":0,"byteLength":72},{"buffer":0,"byteLength":4608,"byteOffset":72},{"buffer":0,"byteLength":4992,"byteOffset":4680},{"buffer":0,"byteLength":1344,"byteOffset":9672,"byteStride":56},{"buffer":0,"byteLength":28840,"byteOffset":11016,"byteStride":56},{"buffer":0,"byteLength":30800,"byteOffset":39856,"byteStride":56}],"accessors":[{"bufferView":3,"componentType":5126,"count":24,"type":"VEC3","max":[0.5,0.5,0.5],"min":[-0.5,-0.5,-0.5]},{"bufferView":3,"componentType":5126,"count":24,"type":"VEC3","byteOffset":12},{"bufferView":3,"componentType":5126,"count":24,"type":"VEC4","byteOffset":24},{"bufferView":3,"componentType":5126,"count":24,"type":"VEC2","byteOffset":40},{"bufferView":3,"componentType":5126,"count":24,"type":"VEC2","byteOffset":48},{"bufferView":0,"componentType":5123,"count":36,"type":"SCALAR"},{"bufferView":4,"componentType":5126,"count":515,"type":"VEC3","max":[0.5,0.5,0.5],"min":[-0.5,-0.5,-0.5]},{"bufferView":4,"componentType":5126,"count":515,"type":"VEC3","byteOffset":12},{"bufferView":4,"componentType":5126,"count":515,"type":"VEC4","byteOffset":24},{"bufferView":4,"componentType":5126,"count":515,"type":"VEC2","byteOffset":40},{"bufferView":4,"componentType":5126,"count":515,"type":"VEC2","byteOffset":48},{"bufferView":1,"componentType":5123,"count":2304,"type":"SCALAR"},{"bufferView":5,"componentType":5126,"count":550,"type":"VEC3","max":[0.5,1,0.5],"min":[-0.5,-1,-0.5]},{"bufferView":5,"componentType":5126,"count":550,"type":"VEC3","byteOffset":12},{"bufferView":5,"componentType":5126,"count":550,"type":"VEC4","byteOffset":24},{"bufferView":5,"componentType":5126,"count":550,"type":"VEC2","byteOffset":40},{"bufferView":5,"componentType":5126,"count":550,"type":"VEC2","byteOffset":48},{"bufferView":2,"componentType":5123,"count":2496,"type":"SCALAR"}],"cameras":[{"type":"perspective","perspective":{"yfov":1.04719758,"zfar":1000,"znear":0.3}}],"materials":[{"name":"New Material","pbrMetallicRoughness":{"baseColorFactor":[0.9433962,0.08454961,0.08454961,1],"metallicFactor":0.5,"roughnessFactor":0.5}},{"name":"New Material 1","pbrMetallicRoughness":{"baseColorFactor":[0.0499287844,0.9622641,0.3399051,1],"metallicFactor":0.5,"roughnessFactor":0.5}},{"name":"New Material 2","pbrMetallicRoughness":{"baseColorFactor":[0.06016376,0.2937245,0.9811321,1],"metallicFactor":0},"extensions":{"KHR_materials_unlit":{}}}],"meshes":[{"name":"Cube","primitives":[{"attributes":{"POSITION":0,"NORMAL":1,"TANGENT":2,"TEXCOORD_0":3,"TEXCOORD_1":4},"indices":5,"material":0}]},{"name":"Sphere","primitives":[{"attributes":{"POSITION":6,"NORMAL":7,"TANGENT":8,"TEXCOORD_0":9,"TEXCOORD_1":10},"indices":11,"material":1}]},{"name":"Capsule","primitives":[{"attributes":{"POSITION":12,"NORMAL":13,"TANGENT":14,"TEXCOORD_0":15,"TEXCOORD_1":16},"indices":17,"material":2}]}],"scene":0,"scenes":[{"name":"test1","nodes":[0,2,4,5,6]}],"extensions":{"KHR_lights_punctual":{"lights":[{"type":"directional","name":"Directional Light","color":[1,0.904661357,0.6724432]}]}}}